<svg t="1572486399715" class="icon" viewBox="0 0 1024 1024" version="1.1" xmlns="http://www.w3.org/2000/svg" p-id="4214" width="64" height="64"><path d="M224 336c-44.176 0-80 35.824-80 80s35.824 80 80 80 80-35.824 80-80S268.176 336 224 336zM224 464c-26.504 0-48-21.496-48-48s21.496-48 48-48 48 21.496 48 48S250.504 464 224 464z" p-id="4215" fill="#409EFF"></path><path d="M928 0 96 0C42.984 0 0 42.984 0 96l0 832c0 53.016 42.984 96 96 96l832 0c53.016 0 96-42.984 96-96L1024 96C1024 42.984 981.016 0 928 0zM992 912c0 44.168-35.832 80-80 80L112 992c-44.176 0-80-35.832-80-80L32 112C32 67.824 67.824 32 112 32l800 0c44.168 0 80 35.824 80 80L992 912z" p-id="4216" fill="#409EFF"></path><path d="M848 208 368 208c-8.832 0-16 7.168-16 16s7.168 16 16 16l480 0c8.832 0 16-7.168 16-16S856.832 208 848 208z" p-id="4217" fill="#409EFF"></path><path d="M848 400 368 400c-8.832 0-16 7.168-16 16s7.168 16 16 16l480 0c8.832 0 16-7.168 16-16S856.832 400 848 400z" p-id="4218" fill="#409EFF"></path><path d="M848 592 368 592c-8.832 0-16 7.168-16 16s7.168 16 16 16l480 0c8.832 0 16-7.168 16-16S856.832 592 848 592z" p-id="4219" fill="#409EFF"></path><path d="M848 784 368 784c-8.832 0-16 7.168-16 16s7.168 16 16 16l480 0c8.832 0 16-7.168 16-16S856.832 784 848 784z" p-id="4220" fill="#409EFF"></path><path d="M224 608m-32 0a4 4 0 1 0 64 0 4 4 0 1 0-64 0Z" p-id="4221" fill="#409EFF"></path><path d="M224 224m-32 0a4 4 0 1 0 64 0 4 4 0 1 0-64 0Z" p-id="4222" fill="#409EFF"></path><path d="M224 800m-32 0a4 4 0 1 0 64 0 4 4 0 1 0-64 0Z" p-id="4223" fill="#409EFF"></path></svg>