<svg t="1572592561209" class="icon" viewBox="0 0 1024 1024" version="1.1" xmlns="http://www.w3.org/2000/svg" p-id="9008" width="32" height="32"><path d="M512 128C406.272 128 320 214.272 320 320s86.272 192 192 192 192-86.272 192-192-86.272-192-192-192z m0 384a320.64 320.64 0 0 0-320 320h64c0-141.76 114.24-256 256-256s256 114.24 256 256h64c0-176.256-143.744-320-320-320z m0-320c71.04 0 128 56.96 128 128 0 71.04-56.96 128-128 128-71.04 0-128-56.96-128-128 0-71.04 56.96-128 128-128z" fill="#409EFF" p-id="9009"></path></svg>